<svg id="Layer_1" data-name="Layer 1" xmlns="http://www.w3.org/2000/svg" xmlns:xlink="http://www.w3.org/1999/xlink" viewBox="0 0 146.61 89.42"><defs><style>.cls-1{fill:none;clip-rule:evenodd;}.cls-2,.cls-3{fill:#243c7b;}.cls-3{fill-rule:evenodd;}.cls-4{clip-path:url(#clip-path);}.cls-5{fill:#08a7e0;}.cls-6{fill:#68cce7;}.cls-7{fill:#aedfe6;}</style><clipPath id="clip-path"><path class="cls-1" d="M1.56,19.53l141.77,26.7L21.49,76.82s6.54-2.66,8.94-4.07,5.94-3.74,7.61-5,7-5.18,7.86-12-5.18-12-7.16-13.72S21.48,30.15,17,28c-4.22-2.75-15.48-8.47-15.48-8.47"/></clipPath></defs><path class="cls-2" d="M74.34,87.74A43.32,43.32,0,0,1,43.1,74.33l-.59-.62,73.62-18.49-.23.83A43.2,43.2,0,0,1,74.34,87.74ZM44.43,74.26A42.09,42.09,0,0,0,114.7,56.61Z"/><path class="cls-2" d="M36.9,66l-.28-.51a43.21,43.21,0,0,1-5.37-20.85c0-1.43.07-2.88.21-4.3l.09-.84.69.47c2.65,1.79,4.58,3.16,5.17,3.66,1.77,1.52,7.16,6.14,6.41,11.83a13.83,13.83,0,0,1-3.18,7.06,19.61,19.61,0,0,1-3.28,3.12ZM32.38,41.29c-.08,1.12-.13,2.24-.13,3.36a42.18,42.18,0,0,0,5,19.85,18.13,18.13,0,0,0,2.64-2.61,12.79,12.79,0,0,0,3-6.55c.68-5.15-4.4-9.51-6.07-10.94C36.26,44,34.61,42.8,32.38,41.29Z"/><path class="cls-3" d="M1.56,19.53l141.77,26.7L21.49,76.82s6.54-2.66,8.94-4.07,5.94-3.74,7.61-5,7-5.18,7.86-12-5.18-12-7.16-13.72S21.48,30.15,17,28c-4.22-2.75-15.48-8.47-15.48-8.47"/><g class="cls-4"><path class="cls-5" d="M-50.8,74.18c66.47-6.12,132.34-16.3,197.27-32.66q-1.51,6.73-3,13.46C60.39,73.91,2.46,75.65-50.8,74.18"/><path class="cls-5" d="M-40.22,67.58A1155.79,1155.79,0,0,0,151.25,20.17q-1.55,6.88-3.08,13.77C75.56,56.77,13.63,67-40.22,67.58"/><path class="cls-6" d="M-30.09,60.57C31,45.34,93.16,24,156.1-1.48Q154.54,5.45,153,12.38C86.33,38.56,24.65,55.79-30.09,60.57"/><path class="cls-7" d="M-20,52.27C41.6,33.56,102.16,5.42,162.1-28.3l-3.81,17C86.51,24.34,25.69,47.16-20,52.27"/><path class="cls-6" d="M-6.87,43.48C62.28,10,118.5-24.6,169.14-59.77Q167-50.41,165-41C107.52-4.39,50.21,26-6.87,43.48"/><path class="cls-5" d="M3.21,32.62c68-43,127-86.7,174.65-131.36q-2.55,11.44-5.12,22.88C116.34-27.19,58.6,6.34,3.21,32.62"/><path class="cls-5" d="M181.75-125.95l-19.24.5a843.35,843.35,0,0,1-71.87,77.2C64.52-23.36,38.26-1,12,20.92,69.55-17.93,126.66-61.43,181.75-125.95"/></g><path class="cls-2" d="M116.9,39.27l-.68-.13-79.89-15,.35-.6A43.1,43.1,0,0,1,116.8,38.58Zm-79-15.9L115.71,38A42.1,42.1,0,0,0,37.9,23.37Z"/></svg>